<svg width="162" height="44" viewBox="0 0 162 44" fill="none" xmlns="http://www.w3.org/2000/svg">
<path d="M17.0408 9.63014L2.23935 13.648C1.59798 13.8226 1.03117 14.2062 0.626441 14.7396C0.22171 15.2731 0.00156723 15.9266 1.09908e-09 16.5994V33.7413C-1.43047e-05 34.2786 0.139626 34.8064 0.404877 35.2717C0.670128 35.7369 1.05163 36.1232 1.51102 36.3917L13.9624 43.6719C14.2131 43.8187 14.4962 43.8992 14.7856 43.9062C15.075 43.9131 15.3616 43.8462 15.6188 43.7116C15.876 43.5769 16.0957 43.379 16.2577 43.1358C16.4196 42.8927 16.5186 42.6122 16.5455 42.3201L19.2083 11.4797C19.2338 11.1989 19.1919 10.916 19.0862 10.6552C18.9805 10.3943 18.8141 10.1632 18.6012 9.98153C18.3884 9.79988 18.1353 9.67305 17.8636 9.61186C17.5919 9.55068 17.3096 9.55695 17.0408 9.63014Z" fill="#FF6D00"/>
<path d="M23.4791 5.0455L20.3134 41.7002C20.286 42.0189 20.3455 42.3391 20.4852 42.626C20.625 42.9128 20.8397 43.1554 21.106 43.3272C21.3724 43.499 21.6801 43.5936 21.9958 43.6006C22.3115 43.6076 22.623 43.5267 22.8965 43.3668L34.8215 36.3916C35.2817 36.1236 35.6639 35.7376 35.9299 35.2723C36.1958 34.807 36.3361 34.2789 36.3364 33.7412V1.74974C36.3365 1.4814 36.2757 1.21664 36.1586 0.975951C36.0415 0.735257 35.8713 0.525081 35.6612 0.361685C35.4511 0.198288 35.2067 0.0860536 34.9469 0.0336632C34.6872 -0.0187271 34.419 -0.00986793 34.1631 0.0595555L25.7068 2.35576C25.1078 2.51795 24.5725 2.86315 24.1739 3.3444C23.7753 3.82566 23.5327 4.41962 23.4791 5.0455Z" fill="#FF5722"/>
<path d="M75.8731 2.29688V34.4571H70.5544V31.8398C69.1402 33.8565 66.654 34.9696 63.7374 34.9696C57.8202 34.9696 53.4464 30.2514 53.4464 23.8628C53.4464 17.4742 57.8202 12.7581 63.7374 12.7581C66.4388 12.7581 68.5396 13.6148 70.083 15.2873V4.10626L75.8731 2.29688ZM64.8094 17.9906C61.7227 17.9906 59.3206 20.3497 59.3206 23.8218C59.3206 27.3819 61.6796 29.69 64.8094 29.69C67.7259 29.69 70.1691 27.6753 70.1691 23.8589C70.1691 20.0915 67.7259 17.9906 64.8094 17.9906Z" fill="white"/>
<path d="M84.7166 25.7958C85.4032 28.4971 87.5901 29.9975 90.6768 29.9975C92.7796 29.9975 94.7513 29.2678 96.594 27.8457L98.9961 31.799C96.4668 33.8999 93.6364 34.9718 90.5066 34.9718C83.9459 35.099 78.7564 29.9975 78.8855 23.8651C78.7564 17.7327 83.8598 12.6312 89.9922 12.7603C95.8604 12.7603 99.9819 17.0911 99.9819 22.621C99.9757 23.6909 99.8444 24.7564 99.5907 25.7958H84.7166ZM94.366 21.729C94.323 19.1059 92.3062 17.4256 89.777 17.4256C87.3338 17.4256 85.3601 19.0981 84.7166 21.7134L94.366 21.729Z" fill="white"/>
<path d="M123.22 13.2314L112.716 34.9715H110.785L100.279 13.2314H106.369L111.728 25.238L117.088 13.2314H123.22Z" fill="white"/>
<path d="M134.728 12.7603C140.947 12.6742 146.269 17.7757 146.134 23.822C146.263 29.8683 140.903 35.0579 134.685 34.9288C128.469 35.0579 123.236 29.8683 123.365 23.822C123.236 17.7757 128.512 12.6312 134.728 12.7603ZM134.728 18.0418C131.512 18.0418 129.239 20.4849 129.239 23.8729C129.239 27.1748 131.512 29.6199 134.728 29.6199C137.858 29.6199 140.217 27.1748 140.217 23.8729C140.217 20.571 137.858 18.0339 134.728 18.0339V18.0418Z" fill="white"/>
<path d="M162 34.457C160.697 34.791 159.357 34.9637 158.012 34.9715C152.652 34.9715 149.522 32.3131 149.522 26.9945V8.32355L155.31 6.51221V13.2314H161.313V18.1216H155.31V26.482C155.31 28.8841 156.511 29.7839 159.256 29.7839C159.6 29.7839 160.5 29.7408 161.994 29.6137L162 34.457Z" fill="white"/>
<path d="M128.277 5.51868H141.222V10.0627H128.277V5.51868Z" fill="white"/>
</svg>
