<svg width="33" height="33" viewBox="0 0 33 33" fill="none" xmlns="http://www.w3.org/2000/svg">
<g opacity="0.5" clip-path="url(#clip0_657_2156)">
<rect width="33" height="33" fill="white"/>
<path d="M20 22.9375C19.8177 22.9375 19.6628 22.8737 19.5352 22.7461C19.4076 22.6185 19.3438 22.4635 19.3438 22.2812V10.0312C19.3438 9.84896 19.4076 9.69401 19.5352 9.56641C19.6628 9.4388 19.8177 9.375 20 9.375C20.1823 9.375 20.3372 9.4388 20.4648 9.56641C20.5924 9.69401 20.6562 9.84896 20.6562 10.0312V22.2812C20.6562 22.4635 20.5924 22.6185 20.4648 22.7461C20.3372 22.8737 20.1823 22.9375 20 22.9375ZM13 23.375C12.9544 23.375 12.9089 23.3704 12.8633 23.3613C12.8177 23.3522 12.7767 23.3385 12.7402 23.3203C12.6217 23.2747 12.526 23.1973 12.4531 23.0879C12.3802 22.9785 12.3438 22.8555 12.3438 22.7188V10.4688C12.3438 10.332 12.3802 10.209 12.4531 10.0996C12.526 9.99023 12.6217 9.91276 12.7402 9.86719C12.7858 9.84896 12.8268 9.83529 12.8633 9.82617C12.9089 9.81706 12.9544 9.8125 13 9.8125C13.0911 9.8125 13.1732 9.83073 13.2461 9.86719C13.3281 9.90365 13.401 9.94922 13.4648 10.0039L19.5898 16.1289C19.6445 16.1927 19.6901 16.2656 19.7266 16.3477C19.763 16.4206 19.7812 16.5026 19.7812 16.5938C19.7812 16.6849 19.763 16.7715 19.7266 16.8535C19.6901 16.9264 19.6445 16.9948 19.5898 17.0586L13.4648 23.1836C13.401 23.2383 13.3281 23.2839 13.2461 23.3203C13.1732 23.3568 13.0911 23.375 13 23.375ZM13.6562 12.0547V21.1328L18.1953 16.5938L13.6562 12.0547Z" fill="#C4C5D7"/>
</g>
<defs>
<clipPath id="clip0_657_2156">
<rect width="33" height="33" fill="white"/>
</clipPath>
</defs>
</svg>
