<svg width="33" height="33" viewBox="0 0 33 33" fill="none" xmlns="http://www.w3.org/2000/svg">
<g opacity="0.5" clip-path="url(#clip0_657_2168)">
<rect width="33" height="33" fill="white"/>
<path d="M13 22.9375C12.8177 22.9375 12.6628 22.8737 12.5352 22.7461C12.4076 22.6185 12.3438 22.4635 12.3438 22.2812V10.0312C12.3438 9.84896 12.4076 9.69401 12.5352 9.56641C12.6628 9.4388 12.8177 9.375 13 9.375C13.1823 9.375 13.3372 9.4388 13.4648 9.56641C13.5924 9.69401 13.6562 9.84896 13.6562 10.0312V22.2812C13.6562 22.4635 13.5924 22.6185 13.4648 22.7461C13.3372 22.8737 13.1823 22.9375 13 22.9375ZM20 23.375C19.9089 23.375 19.8223 23.3568 19.7402 23.3203C19.6673 23.2839 19.599 23.2383 19.5352 23.1836L13.4102 17.0586C13.3555 16.9948 13.3099 16.9264 13.2734 16.8535C13.237 16.7715 13.2188 16.6849 13.2188 16.5938C13.2188 16.5026 13.237 16.4206 13.2734 16.3477C13.3099 16.2656 13.3555 16.1927 13.4102 16.1289L19.5352 10.0039C19.599 9.94922 19.6673 9.90365 19.7402 9.86719C19.8223 9.83073 19.9089 9.8125 20 9.8125C20.1823 9.8125 20.3372 9.8763 20.4648 10.0039C20.5924 10.1315 20.6562 10.2865 20.6562 10.4688V22.7188C20.6562 22.8555 20.6198 22.9785 20.5469 23.0879C20.474 23.1973 20.3783 23.2747 20.2598 23.3203C20.2142 23.3385 20.1686 23.3522 20.123 23.3613C20.0866 23.3704 20.0456 23.375 20 23.375ZM14.8047 16.5938L19.3438 21.1328V12.0547L14.8047 16.5938Z" fill="#C4C5D7"/>
</g>
<defs>
<clipPath id="clip0_657_2168">
<rect width="33" height="33" fill="white"/>
</clipPath>
</defs>
</svg>
