<svg width="33" height="33" viewBox="0 0 33 33" fill="none" xmlns="http://www.w3.org/2000/svg">
<g opacity="0.5" clip-path="url(#clip0_657_2165)">
<rect width="33" height="33" fill="white"/>
<path d="M20.123 22.5C20.0501 22.5 19.9772 22.4909 19.9043 22.4727C19.8405 22.4453 19.7767 22.4089 19.7129 22.3633H19.7266L12.4668 16.9219C12.3848 16.8581 12.3164 16.7806 12.2617 16.6895C12.2161 16.5892 12.1934 16.4844 12.1934 16.375C12.1934 16.2656 12.2161 16.1654 12.2617 16.0742C12.3164 15.974 12.3848 15.8919 12.4668 15.8281L19.7266 10.3867C19.7812 10.3411 19.8405 10.3092 19.9043 10.291C19.9772 10.2637 20.0547 10.25 20.1367 10.25C20.1914 10.25 20.2415 10.2591 20.2871 10.2773C20.3418 10.2865 20.3919 10.3001 20.4375 10.3184C20.5469 10.3822 20.6335 10.4688 20.6973 10.5781C20.7702 10.6784 20.8066 10.7969 20.8066 10.9336V21.8164C20.8066 21.9531 20.7702 22.0762 20.6973 22.1855C20.6335 22.2858 20.5469 22.3633 20.4375 22.418V22.4316C20.3919 22.4499 20.3418 22.4681 20.2871 22.4863C20.2415 22.4954 20.1914 22.5 20.1367 22.5H20.123ZM14.0117 16.375L19.4531 20.4629V12.2871L14.0117 16.375Z" fill="#C4C5D7"/>
</g>
<defs>
<clipPath id="clip0_657_2165">
<rect width="33" height="33" fill="white"/>
</clipPath>
</defs>
</svg>
