<svg width="33" height="33" viewBox="0 0 33 33" fill="none" xmlns="http://www.w3.org/2000/svg">
<g opacity="0.5" clip-path="url(#clip0_657_2159)">
<rect width="33" height="33" fill="white"/>
<path d="M12.877 22.5C12.8223 22.5 12.7676 22.4954 12.7129 22.4863C12.6582 22.4681 12.6081 22.4499 12.5625 22.4316H12.5762C12.4577 22.377 12.362 22.2949 12.2891 22.1855C12.2253 22.0762 12.1934 21.9531 12.1934 21.8164V10.9336C12.1934 10.7969 12.2253 10.6784 12.2891 10.5781C12.362 10.4688 12.4531 10.3822 12.5625 10.3184H12.5762C12.6126 10.3001 12.6582 10.2865 12.7129 10.2773C12.7676 10.2591 12.8223 10.25 12.877 10.25C12.9499 10.25 13.0182 10.2637 13.082 10.291C13.1549 10.3092 13.2188 10.3411 13.2734 10.3867L20.5332 15.8281C20.6152 15.8919 20.679 15.974 20.7246 16.0742C20.7793 16.1654 20.8066 16.2656 20.8066 16.375C20.8066 16.4844 20.7793 16.5892 20.7246 16.6895C20.679 16.7806 20.6152 16.8581 20.5332 16.9219L13.2734 22.3633C13.2188 22.4089 13.1549 22.4453 13.082 22.4727C13.0182 22.4909 12.9499 22.5 12.877 22.5C12.877 22.5 12.8724 22.5 12.8633 22.5H12.877ZM13.5469 12.2871V20.4629L19.002 16.375L13.5469 12.2871Z" fill="#C4C5D7"/>
</g>
<defs>
<clipPath id="clip0_657_2159">
<rect width="33" height="33" fill="white"/>
</clipPath>
</defs>
</svg>
