<svg width="24" height="24" viewBox="0 0 24 24" fill="none" xmlns="http://www.w3.org/2000/svg">
<path d="M20.8269 3.09685C20.5304 2.79888 20.1778 2.56265 19.7894 2.40184C19.401 2.24103 18.9846 2.15883 18.5643 2.15999H18.5561C18.1343 2.15991 17.7167 2.24374 17.3277 2.4066C16.9387 2.56946 16.5859 2.80809 16.29 3.10859L2.3339 17.2067C2.22233 17.3192 2.15982 17.4713 2.16003 17.6297V21.2385C2.15999 21.3175 2.17552 21.3957 2.20573 21.4687C2.23594 21.5417 2.28024 21.608 2.3361 21.6639C2.39196 21.7198 2.45829 21.7641 2.53128 21.7943C2.60428 21.8245 2.68251 21.84 2.76151 21.84H6.37035C6.44934 21.84 6.52755 21.8244 6.60052 21.7942C6.67349 21.764 6.73979 21.7196 6.79562 21.6638L20.8322 7.62722C21.4319 7.02556 21.7682 6.21042 21.7672 5.36094C21.7662 4.51145 21.428 3.69711 20.8269 3.09685ZM6.12134 20.637H3.36298V17.8769L15.3309 5.78763L18.1508 8.60755L6.12134 20.637ZM19.9817 6.77667L19.0013 7.75707L16.1771 4.93285L17.1452 3.95494C17.3297 3.7673 17.5498 3.61831 17.7925 3.51665C18.0353 3.415 18.2958 3.36272 18.559 3.36287C18.8253 3.34744 19.0916 3.39248 19.3379 3.49461C19.5843 3.59674 19.8044 3.75331 19.9816 3.95259C20.3554 4.32747 20.5653 4.83525 20.5653 5.36463C20.5653 5.89401 20.3554 6.4018 19.9816 6.77667H19.9817Z" fill="#5F6B8A"/>
</svg>
