<svg width="24" height="24" viewBox="0 0 24 24" fill="none" xmlns="http://www.w3.org/2000/svg">
<path d="M12 3C10.22 3 8.47991 3.52784 6.99987 4.51677C5.51983 5.50571 4.36628 6.91131 3.68509 8.55585C3.0039 10.2004 2.82567 12.01 3.17294 13.7558C3.5202 15.5016 4.37737 17.1053 5.63604 18.364C6.89472 19.6226 8.49836 20.4798 10.2442 20.8271C11.99 21.1743 13.7996 20.9961 15.4442 20.3149C17.0887 19.6337 18.4943 18.4802 19.4832 17.0001C20.4722 15.5201 21 13.78 21 12C21 9.61305 20.0518 7.32387 18.364 5.63604C16.6761 3.94821 14.387 3 12 3ZM12 20C10.4178 20 8.87104 19.5308 7.55544 18.6518C6.23985 17.7727 5.21447 16.5233 4.60897 15.0615C4.00347 13.5997 3.84504 11.9911 4.15372 10.4393C4.4624 8.88743 5.22433 7.46197 6.34315 6.34315C7.46197 5.22433 8.88743 4.4624 10.4393 4.15372C11.9911 3.84504 13.5997 4.00346 15.0615 4.60896C16.5233 5.21447 17.7727 6.23985 18.6518 7.55544C19.5308 8.87103 20 10.4178 20 12C19.9976 14.121 19.154 16.1544 17.6542 17.6542C16.1544 19.154 14.121 19.9976 12 20ZM17 12.5C17 12.5657 16.9871 12.6307 16.962 12.6914C16.9369 12.7521 16.9001 12.8072 16.8536 12.8536C16.8072 12.9001 16.7521 12.9369 16.6914 12.962C16.6307 12.9871 16.5657 13 16.5 13H11.5C11.4343 13 11.3693 12.9871 11.3086 12.962C11.2479 12.9369 11.1928 12.9001 11.1464 12.8536C11.0999 12.8072 11.0631 12.7521 11.038 12.6914C11.0129 12.6307 11 12.5657 11 12.5V6.5C11 6.36739 11.0527 6.24022 11.1465 6.14645C11.2402 6.05268 11.3674 6 11.5 6C11.6326 6 11.7598 6.05268 11.8536 6.14645C11.9473 6.24022 12 6.36739 12 6.5V12H16.5C16.5657 12 16.6307 12.0129 16.6914 12.038C16.7521 12.0631 16.8072 12.0999 16.8536 12.1464C16.9001 12.1928 16.9369 12.2479 16.962 12.3086C16.9871 12.3693 17 12.4343 17 12.5Z" fill="#F9F9FD"/>
</svg>
