<svg width="24" height="24" viewBox="0 0 24 24" fill="none" xmlns="http://www.w3.org/2000/svg">
<path fill-rule="evenodd" clip-rule="evenodd" d="M9.70953 8.31689C10.4058 8.31689 10.9556 8.86662 10.9556 9.56293V14.4738C10.9556 15.1334 10.4058 15.6832 9.70953 15.6832C9.01322 15.6832 8.4635 15.1334 8.4635 14.4738V9.56293C8.4635 8.86662 9.01322 8.31689 9.70953 8.31689Z" fill="#FF5722"/>
<path fill-rule="evenodd" clip-rule="evenodd" d="M14.2905 8.31689C14.9868 8.31689 15.5365 8.86662 15.5365 9.56293V14.4738C15.5365 15.1334 14.9868 15.6832 14.2905 15.6832C13.6308 15.6832 13.0444 15.1334 13.0444 14.4738V9.56293C13.0444 8.86662 13.6308 8.31689 14.2905 8.31689Z" fill="#FF5722"/>
<path fill-rule="evenodd" clip-rule="evenodd" d="M12.0184 2.15997C17.4423 2.15997 21.84 6.55774 21.84 12.0183C21.84 17.4422 17.4423 21.84 12.0184 21.84C6.5578 21.84 2.16003 17.4422 2.16003 12.0183C2.16003 6.55774 6.5578 2.15997 12.0184 2.15997ZM12.0184 2.96623C17.0025 2.96623 21.0338 6.99752 21.0338 12.0183C21.0338 17.0024 17.0025 21.0337 12.0184 21.0337C6.99758 21.0337 2.96629 17.0024 2.96629 12.0183C2.96629 6.99752 6.99758 2.96623 12.0184 2.96623Z" fill="#FF5722"/>
</svg>
