<svg width="24" height="24" viewBox="0 0 24 24" fill="none" xmlns="http://www.w3.org/2000/svg">
<path d="M20.3605 14.2862C19.9264 16.1571 18.8729 17.8264 17.3709 19.0234C15.8689 20.2203 14.0065 20.8745 12.0859 20.88C11.4344 20.8797 10.7851 20.805 10.1505 20.6574C8.42196 20.2567 6.86172 19.3262 5.68777 17.9956C4.51382 16.6651 3.78481 15.0011 3.60257 13.2361C3.58886 13.0997 3.6299 12.9635 3.71667 12.8573C3.80343 12.7511 3.92882 12.6838 4.06523 12.6701C4.20165 12.6564 4.33792 12.6974 4.44408 12.7842C4.55023 12.871 4.61757 12.9963 4.63128 13.1328C4.76172 14.3951 5.21126 15.6035 5.93759 16.6442C6.66392 17.6849 7.64314 18.5237 8.78307 19.0815C9.923 19.6393 11.1861 19.8978 12.4536 19.8328C13.721 19.7677 14.951 19.3812 16.0278 18.7095C17.71 17.6598 18.9062 15.9849 19.3534 14.0532C19.8006 12.1215 19.4622 10.0913 18.4125 8.4091C17.3628 6.72696 15.6878 5.5307 13.7561 5.08349C11.8244 4.63628 9.79418 4.97475 8.11203 6.02445L6.98096 6.73059L9.40336 6.977C9.53497 6.99064 9.65634 7.05422 9.74248 7.15466C9.82861 7.2551 9.87296 7.38475 9.86638 7.5169C9.8598 7.64905 9.80279 7.77365 9.7071 7.86504C9.61141 7.95642 9.48432 8.00763 9.35201 8.00813C9.33439 8.00825 9.31679 8.00733 9.29928 8.00537L5.37327 7.60733C5.36362 7.60733 5.35466 7.60319 5.34501 7.60181C5.32597 7.59893 5.3071 7.59502 5.28849 7.59009C5.27712 7.58699 5.26575 7.58355 5.25403 7.57976C5.25127 7.57976 5.24851 7.57976 5.24576 7.57976C5.243 7.57976 5.23645 7.57493 5.23163 7.57286C5.21903 7.56794 5.20671 7.5623 5.19475 7.55598C5.18441 7.55115 5.17442 7.54598 5.16443 7.54012L5.14237 7.5222C5.13203 7.51531 5.12204 7.50773 5.11204 7.4998C5.10205 7.49188 5.09447 7.48636 5.08619 7.47912C5.07792 7.47189 5.07034 7.46499 5.0631 7.45741C5.05587 7.44983 5.0476 7.44087 5.04001 7.43225C5.03243 7.42364 5.0252 7.41537 5.0183 7.40641C5.01141 7.39745 5.00417 7.38745 4.99762 7.37746C4.99487 7.37332 4.99108 7.36988 4.98832 7.3654C4.98556 7.36092 4.98384 7.3554 4.98108 7.35092C4.97833 7.34644 4.9704 7.33197 4.96523 7.32197C4.96006 7.31198 4.95489 7.29957 4.95041 7.28751C4.94593 7.27545 4.94179 7.26718 4.93835 7.25684C4.9349 7.2465 4.93215 7.23823 4.92973 7.22858C4.92732 7.21893 4.92387 7.20445 4.92146 7.19239C4.91905 7.18033 4.91664 7.1693 4.91526 7.15793C4.91388 7.14656 4.91319 7.14001 4.9125 7.1307C4.91181 7.1214 4.9125 7.10589 4.9125 7.09314C4.9125 7.08039 4.9125 7.06798 4.9125 7.05523C4.9125 7.04972 4.9125 7.04455 4.9125 7.03903C4.9125 7.03352 4.9125 7.0318 4.91491 7.028C4.91491 7.01698 4.91836 7.0056 4.92043 6.99354C4.9225 6.98148 4.92629 6.96666 4.93008 6.95357C4.93387 6.94047 4.93525 6.93461 4.93835 6.92565C4.94145 6.91669 4.94007 6.91635 4.9418 6.91186L6.30687 3.2109C6.35575 3.08419 6.45252 2.98181 6.57628 2.92588C6.70003 2.86995 6.84082 2.86497 6.96822 2.912C7.09562 2.95904 7.1994 3.05433 7.25711 3.17726C7.31482 3.30019 7.32185 3.4409 7.27665 3.56897L6.43369 5.85351L7.56476 5.14771C8.9926 4.25657 10.6526 3.80887 12.3349 3.86123C14.0172 3.91358 15.6462 4.46363 17.0159 5.44183C18.3855 6.42002 19.4344 7.78242 20.0297 9.35672C20.625 10.931 20.7401 12.6465 20.3605 14.2862ZM8.72651 16.4012L12.4006 12.7289C12.4486 12.6808 12.4867 12.6238 12.5126 12.5611C12.5386 12.4983 12.5519 12.4311 12.5519 12.3632V8.60675C12.5519 8.46965 12.4974 8.33816 12.4005 8.24121C12.3035 8.14427 12.172 8.08981 12.0349 8.08981C11.8978 8.08981 11.7664 8.14427 11.6694 8.24121C11.5725 8.33816 11.518 8.46965 11.518 8.60675V12.1492L7.99693 15.6716C7.91013 15.7703 7.86416 15.8983 7.86835 16.0296C7.87255 16.1609 7.92659 16.2857 8.0195 16.3786C8.11241 16.4715 8.23721 16.5256 8.36854 16.5298C8.49986 16.534 8.62786 16.488 8.72651 16.4012Z" fill="#C4C5D7"/>
</svg>
