<svg width="24" height="24" viewBox="0 0 24 24" fill="none" xmlns="http://www.w3.org/2000/svg">
<path d="M12 2.15997C6.57128 2.15997 2.16003 6.57121 2.16003 12C2.16003 17.4287 6.57128 21.84 12 21.84C17.4288 21.84 21.84 17.4287 21.84 12C21.84 6.57121 17.4288 2.15997 12 2.15997ZM12 3.11997C16.91 3.11997 20.88 7.09005 20.88 12C20.88 16.9099 16.91 20.88 12 20.88C7.09011 20.88 3.12003 16.9099 3.12003 12C3.12003 7.09005 7.09011 3.11997 12 3.11997ZM9.45003 7.43997C8.8952 7.45245 8.41422 7.89808 8.40003 8.53497V15.4575C8.41899 16.3066 9.26689 16.8217 10.0125 16.4175L16.0125 12.945C16.3391 12.7553 16.56 12.4072 16.56 12C16.56 11.5928 16.3391 11.2446 16.0125 11.055L10.0125 7.58247C9.82611 7.48141 9.63498 7.43581 9.45003 7.43997Z" fill="#FF5722"/>
</svg>
