<svg width="25" height="25" viewBox="0 0 25 25" fill="none" xmlns="http://www.w3.org/2000/svg">
<path d="M20.1386 23.6111H4.71054C3.34112 23.6111 2.22614 22.4961 2.22614 21.1267V5.69864C2.22614 4.32922 3.34112 3.21411 4.71054 3.21411H20.1386C21.5101 3.21411 22.623 4.32922 22.623 5.69864V21.1267C22.6251 22.4981 21.5101 23.6111 20.1386 23.6111ZM4.71054 4.22947C3.90067 4.22947 3.24106 4.88878 3.24106 5.69864V21.1267C3.24106 21.9365 3.90067 22.5958 4.71054 22.5958H20.1386C20.9485 22.5958 21.6096 21.9365 21.6096 21.1267V5.69864C21.6096 4.88878 20.9505 4.22947 20.1386 4.22947H4.71054Z" fill="black"/>
<path d="M8.11009 5.85355C7.82928 5.85355 7.60336 5.62567 7.60336 5.34689V1.89582C7.60336 1.61501 7.83131 1.38916 8.11009 1.38916C8.38884 1.38916 8.61878 1.61704 8.61878 1.89582V5.34689C8.61675 5.62567 8.38884 5.85355 8.11009 5.85355Z" fill="black"/>
<path d="M16.6608 5.85318C16.38 5.85318 16.1521 5.62529 16.1521 5.34654V1.89545C16.1521 1.61464 16.38 1.38879 16.6608 1.38879C16.9416 1.38879 17.1675 1.61668 17.1675 1.89545V5.34654C17.1696 5.62529 16.9416 5.85318 16.6608 5.85318Z" fill="black"/>
<path d="M22.1149 8.94979H2.7309C2.4501 8.94979 2.2222 8.7219 2.2222 8.44312C2.2222 8.16435 2.4501 7.9364 2.7309 7.9364H22.1149C22.3957 7.9364 22.6236 8.16435 22.6236 8.44312C22.6236 8.7219 22.3957 8.94979 22.1149 8.94979Z" fill="black"/>
</svg>
