<svg width="24" height="24" viewBox="0 0 24 24" fill="none" xmlns="http://www.w3.org/2000/svg">
<path d="M14.8418 4.97042C14.7167 4.92493 14.5788 4.93097 14.4582 4.98722C14.3376 5.04346 14.2443 5.14531 14.1988 5.27034C14.1533 5.39538 14.1593 5.53337 14.2156 5.65395C14.2718 5.77453 14.3737 5.86783 14.4987 5.91333C16.0897 6.49124 17.4262 7.61137 18.2732 9.07689C19.1203 10.5424 19.4238 12.2596 19.1304 13.9267C18.837 15.5938 17.9655 17.1041 16.6689 18.1924C15.3724 19.2806 13.7339 19.8772 12.0411 19.8772C10.3484 19.8772 8.70987 19.2806 7.41335 18.1924C6.11683 17.1041 5.24531 15.5938 4.95191 13.9267C4.65851 12.2596 4.962 10.5424 5.80906 9.07689C6.65613 7.61137 7.99257 6.49124 9.58357 5.91333C9.7086 5.86783 9.81045 5.77453 9.86669 5.65395C9.92294 5.53337 9.92898 5.39538 9.88349 5.27034C9.838 5.14531 9.7447 5.04346 9.62412 4.98722C9.50353 4.93097 9.36555 4.92493 9.24051 4.97042C7.4279 5.62899 5.90535 6.90528 4.94037 8.57503C3.97539 10.2448 3.6297 12.2012 3.96405 14.1005C4.2984 15.9999 5.2914 17.7206 6.76857 18.9605C8.24574 20.2003 10.1126 20.88 12.0411 20.88C13.9697 20.88 15.8365 20.2003 17.3137 18.9605C18.7909 17.7206 19.7839 15.9999 20.1182 14.1005C20.4526 12.2012 20.1069 10.2448 19.1419 8.57503C18.1769 6.90528 16.6544 5.62899 14.8418 4.97042Z" fill="#C4C5D7"/>
<path d="M12.1415 2.88H11.9409C11.7193 2.88 11.5397 3.05964 11.5397 3.28124V9.09918C11.5397 9.32077 11.7193 9.50041 11.9409 9.50041H12.1415C12.3631 9.50041 12.5428 9.32077 12.5428 9.09918V3.28124C12.5428 3.05964 12.3631 2.88 12.1415 2.88Z" fill="#C4C5D7"/>
</svg>
