<svg width="24" height="24" viewBox="0 0 24 24" fill="none" xmlns="http://www.w3.org/2000/svg">
<path d="M12 21.84C10.0539 21.84 8.15141 21.2629 6.53323 20.1816C4.91505 19.1004 3.65383 17.5636 2.90906 15.7656C2.1643 13.9676 1.96943 11.9891 2.34911 10.0803C2.72879 8.17151 3.66596 6.4182 5.04211 5.04205C6.41826 3.6659 8.17158 2.72873 10.0803 2.34905C11.9891 1.96937 13.9676 2.16424 15.7656 2.909C17.5637 3.65377 19.1005 4.91499 20.1817 6.53317C21.2629 8.15135 21.84 10.0538 21.84 12C21.8351 14.6082 20.7968 17.1081 18.9525 18.9524C17.1082 20.7967 14.6082 21.835 12 21.84ZM12 3.09712C10.2392 3.09712 8.51794 3.61926 7.05388 4.59752C5.58981 5.57578 4.44871 6.96622 3.77487 8.593C3.10103 10.2198 2.92473 12.0099 3.26825 13.7368C3.61177 15.4638 4.45968 17.0502 5.70477 18.2952C6.94985 19.5403 8.53619 20.3882 10.2632 20.7318C11.9902 21.0753 13.7802 20.899 15.407 20.2251C17.0338 19.5513 18.4242 18.4102 19.4025 16.9461C20.3807 15.4821 20.9029 13.7608 20.9029 12C20.8986 9.64012 19.9592 7.37817 18.2905 5.7095C16.6218 4.04082 14.3599 3.10146 12 3.09712Z" fill="#5F6B8A"/>
<path d="M14.8232 8.47168H9.17454C8.78636 8.47168 8.47168 8.78636 8.47168 9.17454V14.8232C8.47168 15.2113 8.78636 15.526 9.17454 15.526H14.8232C15.2113 15.526 15.526 15.2113 15.526 14.8232V9.17454C15.526 8.78636 15.2113 8.47168 14.8232 8.47168Z" fill="#5F6B8A"/>
</svg>
