<svg width="95" height="78" viewBox="0 0 95 78" fill="none" xmlns="http://www.w3.org/2000/svg">
<g clip-path="url(#clip0_665_190)">
<path d="M35.8409 52.25C26.125 56.5682 19.4318 66.2841 19.4318 77.7273" stroke="#5F6B8A" stroke-width="6.81818" stroke-miterlimit="10" stroke-linecap="round" stroke-linejoin="round"/>
<path d="M75.5682 77.7273C75.5682 66.2841 68.875 56.5682 59.1591 52.25" stroke="#5F6B8A" stroke-width="6.81818" stroke-miterlimit="10" stroke-linecap="round" stroke-linejoin="round"/>
<path d="M47.5 56.1363C58.2319 56.1363 66.9318 47.4364 66.9318 36.7045C66.9318 25.9726 58.2319 17.2727 47.5 17.2727C36.7681 17.2727 28.0682 25.9726 28.0682 36.7045C28.0682 47.4364 36.7681 56.1363 47.5 56.1363Z" stroke="#5F6B8A" stroke-width="6.81818" stroke-miterlimit="10" stroke-linecap="round" stroke-linejoin="round"/>
<path fill-rule="evenodd" clip-rule="evenodd" d="M82.5 19C81.1193 19 80 20.1193 80 21.5V27H74.5C73.1193 27 72 28.1193 72 29.5C72 30.8807 73.1193 32 74.5 32H80V37.5C80 38.8807 81.1193 40 82.5 40C83.8807 40 85 38.8807 85 37.5V32H90.5C91.8807 32 93 30.8807 93 29.5C93 28.1193 91.8807 27 90.5 27H85V21.5C85 20.1193 83.8807 19 82.5 19Z" fill="#5F6B8A"/>
</g>
<defs>
<clipPath id="clip0_665_190">
<rect width="95" height="95" fill="white"/>
</clipPath>
</defs>
</svg>
